<?xml version="1.0" encoding="utf-8"?>
<!-- Generator: Adobe Illustrator 23.0.2, SVG Export Plug-In . SVG Version: 6.00 Build 0)  -->
<svg version="1.1" id="Layer_1" xmlns="http://www.w3.org/2000/svg" xmlns:xlink="http://www.w3.org/1999/xlink" x="0px" y="0px"
	 viewBox="0 0 1920 1080" style="enable-background:new 0 0 1920 1080;" xml:space="preserve">
<style type="text/css">
	.st0{fill:#012DD8;}
	.st1{fill:none;stroke:#012DD8;stroke-width:90;stroke-miterlimit:10;}
</style>
<g>
	<path class="st0" d="M80.5,665c59.7,0,115.8,23.2,158,65.5c42.2,42.2,65.5,98.3,65.5,158s-23.2,115.8-65.5,158
		c-42.2,42.2-98.3,65.5-158,65.5s-115.8-23.2-158-65.5c-42.2-42.2-65.5-98.3-65.5-158s23.2-115.8,65.5-158
		C-35.3,688.2,20.8,665,80.5,665 M80.5,588C-85.5,588-220,722.5-220,888.5S-85.5,1189,80.5,1189S381,1054.5,381,888.5
		S246.5,588,80.5,588L80.5,588z"/>
</g>
<g>
	<path class="st0" d="M1900.5,246c48.7,0,95.9,9.5,140.3,28.3c42.9,18.2,81.5,44.2,114.6,77.3c33.1,33.1,59.1,71.7,77.3,114.6
		c18.8,44.4,28.3,91.6,28.3,140.3s-9.5,95.9-28.3,140.3c-18.2,42.9-44.2,81.5-77.3,114.6c-33.1,33.1-71.7,59.1-114.6,77.3
		c-44.4,18.8-91.6,28.3-140.3,28.3s-95.9-9.5-140.3-28.3c-42.9-18.2-81.5-44.2-114.6-77.3c-33.1-33.1-59.1-71.7-77.3-114.6
		c-18.8-44.4-28.3-91.6-28.3-140.3s9.5-95.9,28.3-140.3c18.2-42.9,44.2-81.5,77.3-114.6s71.7-59.1,114.6-77.3
		C1804.6,255.5,1851.8,246,1900.5,246 M1900.5,155c-249.4,0-451.5,202.1-451.5,451.5s202.1,451.5,451.5,451.5S2352,855.9,2352,606.5
		S2149.9,155,1900.5,155L1900.5,155z"/>
</g>
<g>
	<circle class="st0" cx="502" cy="483" r="328"/>
</g>
<line class="st1" x1="1125" y1="817.5" x2="1331" y2="1032.8"/>
<line class="st1" x1="1323.8" y1="811.1" x2="1132.2" y2="1039.3"/>
<circle class="st0" cx="1920.5" cy="389.5" r="8"/>
<circle class="st0" cx="1920.5" cy="412.5" r="8"/>
<circle class="st0" cx="1920.5" cy="435.5" r="8"/>
<circle class="st0" cx="1920.5" cy="458.5" r="8"/>
<circle class="st0" cx="1920.5" cy="481.5" r="8"/>
<circle class="st0" cx="1920.5" cy="504.5" r="8"/>
<circle class="st0" cx="1920.5" cy="527.5" r="8"/>
<circle class="st0" cx="1920.5" cy="550.5" r="8"/>
<circle class="st0" cx="1899.5" cy="399.5" r="8"/>
<circle class="st0" cx="1899.5" cy="422.5" r="8"/>
<circle class="st0" cx="1899.5" cy="445.5" r="8"/>
<circle class="st0" cx="1899.5" cy="468.5" r="8"/>
<circle class="st0" cx="1899.5" cy="491.5" r="8"/>
<circle class="st0" cx="1899.5" cy="514.5" r="8"/>
<circle class="st0" cx="1899.5" cy="537.5" r="8"/>
<circle class="st0" cx="1899.5" cy="560.5" r="8"/>
<circle class="st0" cx="1878.5" cy="390.5" r="8"/>
<circle class="st0" cx="1878.5" cy="413.5" r="8"/>
<circle class="st0" cx="1878.5" cy="436.5" r="8"/>
<circle class="st0" cx="1878.5" cy="459.5" r="8"/>
<circle class="st0" cx="1878.5" cy="482.5" r="8"/>
<circle class="st0" cx="1878.5" cy="505.5" r="8"/>
<circle class="st0" cx="1878.5" cy="528.5" r="8"/>
<circle class="st0" cx="1878.5" cy="551.5" r="8"/>
<circle class="st0" cx="1857.5" cy="400.5" r="8"/>
<circle class="st0" cx="1857.5" cy="423.5" r="8"/>
<circle class="st0" cx="1857.5" cy="446.5" r="8"/>
<circle class="st0" cx="1857.5" cy="469.5" r="8"/>
<circle class="st0" cx="1857.5" cy="492.5" r="8"/>
<circle class="st0" cx="1857.5" cy="515.5" r="8"/>
<circle class="st0" cx="1857.5" cy="538.5" r="8"/>
<circle class="st0" cx="1857.5" cy="561.5" r="8"/>
<circle class="st0" cx="1918.5" cy="584.5" r="8"/>
<circle class="st0" cx="1918.5" cy="607.5" r="8"/>
<circle class="st0" cx="1918.5" cy="630.5" r="8"/>
<circle class="st0" cx="1918.5" cy="653.5" r="8"/>
<circle class="st0" cx="1918.5" cy="676.5" r="8"/>
<circle class="st0" cx="1918.5" cy="699.5" r="8"/>
<circle class="st0" cx="1918.5" cy="722.5" r="8"/>
<circle class="st0" cx="1918.5" cy="745.5" r="8"/>
<circle class="st0" cx="1897.5" cy="594.5" r="8"/>
<circle class="st0" cx="1897.5" cy="617.5" r="8"/>
<circle class="st0" cx="1897.5" cy="640.5" r="8"/>
<circle class="st0" cx="1897.5" cy="663.5" r="8"/>
<circle class="st0" cx="1897.5" cy="686.5" r="8"/>
<circle class="st0" cx="1897.5" cy="709.5" r="8"/>
<circle class="st0" cx="1897.5" cy="732.5" r="8"/>
<circle class="st0" cx="1897.5" cy="755.5" r="8"/>
<circle class="st0" cx="1876.5" cy="585.5" r="8"/>
<circle class="st0" cx="1876.5" cy="608.5" r="8"/>
<circle class="st0" cx="1876.5" cy="631.5" r="8"/>
<circle class="st0" cx="1876.5" cy="654.5" r="8"/>
<circle class="st0" cx="1876.5" cy="677.5" r="8"/>
<circle class="st0" cx="1876.5" cy="700.5" r="8"/>
<circle class="st0" cx="1876.5" cy="723.5" r="8"/>
<circle class="st0" cx="1876.5" cy="746.5" r="8"/>
<circle class="st0" cx="1855.5" cy="595.5" r="8"/>
<circle class="st0" cx="1855.5" cy="618.5" r="8"/>
<circle class="st0" cx="1855.5" cy="641.5" r="8"/>
<circle class="st0" cx="1855.5" cy="664.5" r="8"/>
<circle class="st0" cx="1855.5" cy="687.5" r="8"/>
<circle class="st0" cx="1855.5" cy="710.5" r="8"/>
<circle class="st0" cx="1855.5" cy="733.5" r="8"/>
<circle class="st0" cx="1855.5" cy="756.5" r="8"/>
</svg>
